<svg width="80" height="80" viewBox="0 0 80 80" fill="none" xmlns="http://www.w3.org/2000/svg">
<g filter="url(#filter0_d_237_5038)">
<path d="M16 36C16 22.7452 26.7452 12 40 12C53.2548 12 64 22.7452 64 36C64 49.2548 53.2548 60 40 60C26.7452 60 16 49.2548 16 36Z" fill="white"/>
</g>
<path d="M49.2311 26.7792C49.1245 26.6663 48.96 26.6348 48.8208 26.7003L30.8774 35.1348C30.7331 35.2029 30.6489 35.3588 30.6699 35.5202C30.6908 35.6817 30.8119 35.8098 30.9685 35.8364L39.0167 37.2179L39.9368 45.0073C39.9563 45.1695 40.0774 45.3002 40.2346 45.3276C40.2552 45.3313 40.2755 45.3332 40.2957 45.3332C40.4313 45.3332 40.5582 45.255 40.6196 45.1273L49.2958 27.2013C49.3638 27.061 49.3378 26.8918 49.2311 26.7792Z" fill="#252849"/>
<defs>
<filter id="filter0_d_237_5038" x="0" y="0" width="80" height="80" filterUnits="userSpaceOnUse" color-interpolation-filters="sRGB">
<feFlood flood-opacity="0" result="BackgroundImageFix"/>
<feColorMatrix in="SourceAlpha" type="matrix" values="0 0 0 0 0 0 0 0 0 0 0 0 0 0 0 0 0 0 127 0" result="hardAlpha"/>
<feOffset dy="4"/>
<feGaussianBlur stdDeviation="8"/>
<feColorMatrix type="matrix" values="0 0 0 0 0.1 0 0 0 0 0.102083 0 0 0 0 0.125 0 0 0 0.16 0"/>
<feBlend mode="normal" in2="BackgroundImageFix" result="effect1_dropShadow_237_5038"/>
<feBlend mode="normal" in="SourceGraphic" in2="effect1_dropShadow_237_5038" result="shape"/>
</filter>
</defs>
</svg>
