<svg width="81" height="80" viewBox="0 0 81 80" fill="none" xmlns="http://www.w3.org/2000/svg">
<g filter="url(#filter0_d_269_4473)">
<path d="M16.5 36C16.5 22.7452 27.2452 12 40.5 12C53.7548 12 64.5 22.7452 64.5 36C64.5 49.2548 53.7548 60 40.5 60C27.2452 60 16.5 49.2548 16.5 36Z" fill="white"/>
</g>
<path fill-rule="evenodd" clip-rule="evenodd" d="M32.5 37C31.9477 37 31.5 36.5523 31.5 36C31.5 33.4263 32.5817 31.1035 34.3124 29.4644C35.9244 27.9378 38.1037 27 40.5 27C42.8963 27 45.0756 27.9378 46.6876 29.4644C47.0886 29.8442 47.1058 30.4771 46.7261 30.8781C46.3463 31.2791 45.7134 31.2963 45.3124 30.9166C44.057 29.7277 42.3646 29 40.5 29C38.6354 29 36.943 29.7277 35.6876 30.9166C34.3391 32.1937 33.5 33.998 33.5 36C33.5 36.5523 33.0523 37 32.5 37ZM34.2739 41.1219C34.6537 40.7209 35.2866 40.7037 35.6876 41.0834C36.943 42.2723 38.6354 43 40.5 43C44.366 43 47.5 39.866 47.5 36C47.5 35.4477 47.9477 35 48.5 35C49.0523 35 49.5 35.4477 49.5 36C49.5 40.9706 45.4706 45 40.5 45C38.1037 45 35.9244 44.0622 34.3124 42.5356C33.9114 42.1558 33.8942 41.5229 34.2739 41.1219Z" fill="#252849"/>
<path fill-rule="evenodd" clip-rule="evenodd" d="M29.7929 33.8787C30.1834 33.4882 30.8166 33.4882 31.2071 33.8787L32.5 35.1716L33.7929 33.8787C34.1834 33.4882 34.8166 33.4882 35.2071 33.8787C35.5976 34.2692 35.5976 34.9024 35.2071 35.2929L32.5 38L29.7929 35.2929C29.4024 34.9024 29.4024 34.2692 29.7929 33.8787Z" fill="#252849"/>
<path fill-rule="evenodd" clip-rule="evenodd" d="M51.2071 37.7073C50.8166 38.0978 50.1834 38.0978 49.7929 37.7073L48.5 36.4144L47.2071 37.7073C46.8166 38.0978 46.1834 38.0978 45.7929 37.7073C45.4024 37.3167 45.4024 36.6836 45.7929 36.293L48.5 33.5859L51.2071 36.293C51.5976 36.6836 51.5976 37.3167 51.2071 37.7073Z" fill="#252849"/>
<defs>
<filter id="filter0_d_269_4473" x="0.5" y="0" width="80" height="80" filterUnits="userSpaceOnUse" color-interpolation-filters="sRGB">
<feFlood flood-opacity="0" result="BackgroundImageFix"/>
<feColorMatrix in="SourceAlpha" type="matrix" values="0 0 0 0 0 0 0 0 0 0 0 0 0 0 0 0 0 0 127 0" result="hardAlpha"/>
<feOffset dy="4"/>
<feGaussianBlur stdDeviation="8"/>
<feColorMatrix type="matrix" values="0 0 0 0 0.1 0 0 0 0 0.102083 0 0 0 0 0.125 0 0 0 0.16 0"/>
<feBlend mode="normal" in2="BackgroundImageFix" result="effect1_dropShadow_269_4473"/>
<feBlend mode="normal" in="SourceGraphic" in2="effect1_dropShadow_269_4473" result="shape"/>
</filter>
</defs>
</svg>
