<svg width="40" height="40" viewBox="0 0 40 40" fill="none" xmlns="http://www.w3.org/2000/svg">
<path fill-rule="evenodd" clip-rule="evenodd" d="M11 24C11 23.4477 11.4477 23 12 23H28C28.5523 23 29 23.4477 29 24C29 24.5523 28.5523 25 28 25H12C11.4477 25 11 24.5523 11 24Z" fill="#4CAF50"/>
<path fill-rule="evenodd" clip-rule="evenodd" d="M11 16C11 15.4477 11.4477 15 12 15H28C28.5523 15 29 15.4477 29 16C29 16.5523 28.5523 17 28 17H12C11.4477 17 11 16.5523 11 16Z" fill="#4CAF50"/>
<path fill-rule="evenodd" clip-rule="evenodd" d="M23 17C23.5523 17 24 16.5523 24 16C24 15.4477 23.5523 15 23 15C22.4477 15 22 15.4477 22 16C22 16.5523 22.4477 17 23 17ZM23 19C24.6569 19 26 17.6569 26 16C26 14.3431 24.6569 13 23 13C21.3431 13 20 14.3431 20 16C20 17.6569 21.3431 19 23 19Z" fill="#4CAF50"/>
<path fill-rule="evenodd" clip-rule="evenodd" d="M17 25C17.5523 25 18 24.5523 18 24C18 23.4477 17.5523 23 17 23C16.4477 23 16 23.4477 16 24C16 24.5523 16.4477 25 17 25ZM17 27C18.6569 27 20 25.6569 20 24C20 22.3431 18.6569 21 17 21C15.3431 21 14 22.3431 14 24C14 25.6569 15.3431 27 17 27Z" fill="#4CAF50"/>
</svg>
